<svg width="20" height="24" viewBox="0 0 20 24" fill="none" xmlns="http://www.w3.org/2000/svg">
<mask id="path-1-inside-1_53223_494" fill="white">
<path d="M20 10.5V13.5H18.5V17.25C18.5 17.5625 18.4414 17.8555 18.3242 18.1289C18.207 18.4023 18.0469 18.6406 17.8438 18.8438C17.6406 19.0469 17.4023 19.207 17.1289 19.3242C16.8555 19.4414 16.5625 19.5 16.25 19.5H13.1562L8 23.9062V19.5H4.25C3.9375 19.5 3.64453 19.4414 3.37109 19.3242C3.09766 19.207 2.85938 19.0469 2.65625 18.8438C2.45312 18.6406 2.29297 18.4023 2.17578 18.1289C2.05859 17.8555 2 17.5625 2 17.25V13.5H0.5V10.5H2V8.25C2 7.9375 2.05859 7.64453 2.17578 7.37109C2.29297 7.09766 2.45312 6.85938 2.65625 6.65625C2.85938 6.45312 3.09766 6.29297 3.37109 6.17578C3.64453 6.05859 3.9375 6 4.25 6H9.5V3.55078C9.27344 3.41797 9.09375 3.23438 8.96094 3C8.82812 2.76562 8.75781 2.51562 8.75 2.25C8.75 2.03906 8.78906 1.84375 8.86719 1.66406C8.94531 1.48438 9.05078 1.32812 9.18359 1.19531C9.31641 1.0625 9.47656 0.953125 9.66406 0.867188C9.85156 0.78125 10.0469 0.742188 10.25 0.75C10.4609 0.75 10.6562 0.789062 10.8359 0.867188C11.0156 0.945312 11.1719 1.05078 11.3047 1.18359C11.4375 1.31641 11.5469 1.47656 11.6328 1.66406C11.7188 1.85156 11.7578 2.04688 11.75 2.25C11.75 2.51562 11.6836 2.76562 11.5508 3C11.418 3.23438 11.2344 3.41797 11 3.55078V6H16.25C16.5625 6 16.8555 6.05859 17.1289 6.17578C17.4023 6.29297 17.6406 6.45312 17.8438 6.65625C18.0469 6.85938 18.207 7.09766 18.3242 7.37109C18.4414 7.64453 18.5 7.9375 18.5 8.25V10.5H20ZM17 8.25C17 8.04688 16.9258 7.87109 16.7773 7.72266C16.6289 7.57422 16.4531 7.5 16.25 7.5H4.25C4.04688 7.5 3.87109 7.57422 3.72266 7.72266C3.57422 7.87109 3.5 8.04688 3.5 8.25V17.25C3.5 17.4531 3.57422 17.6289 3.72266 17.7773C3.87109 17.9258 4.04688 18 4.25 18H9.5V20.6484L12.5938 18H16.25C16.4531 18 16.6289 17.9258 16.7773 17.7773C16.9258 17.6289 17 17.4531 17 17.25V8.25ZM7.02734 13.6641C7.45703 14.0938 7.94922 14.4219 8.50391 14.6484C9.05859 14.875 9.64062 14.9922 10.25 15C10.8594 15 11.4414 14.8867 11.9961 14.6602C12.5508 14.4336 13.043 14.1016 13.4727 13.6641L14.5273 14.7305C13.957 15.3008 13.3047 15.7383 12.5703 16.043C11.8359 16.3477 11.0625 16.5 10.25 16.5C9.44531 16.5 8.67578 16.3477 7.94141 16.043C7.20703 15.7383 6.55078 15.3008 5.97266 14.7305L7.02734 13.6641Z"/>
</mask>
<path d="M20 10.5V13.5H18.5V17.25C18.5 17.5625 18.4414 17.8555 18.3242 18.1289C18.207 18.4023 18.0469 18.6406 17.8438 18.8438C17.6406 19.0469 17.4023 19.207 17.1289 19.3242C16.8555 19.4414 16.5625 19.5 16.25 19.5H13.1562L8 23.9062V19.5H4.25C3.9375 19.5 3.64453 19.4414 3.37109 19.3242C3.09766 19.207 2.85938 19.0469 2.65625 18.8438C2.45312 18.6406 2.29297 18.4023 2.17578 18.1289C2.05859 17.8555 2 17.5625 2 17.25V13.5H0.5V10.5H2V8.25C2 7.9375 2.05859 7.64453 2.17578 7.37109C2.29297 7.09766 2.45312 6.85938 2.65625 6.65625C2.85938 6.45312 3.09766 6.29297 3.37109 6.17578C3.64453 6.05859 3.9375 6 4.25 6H9.5V3.55078C9.27344 3.41797 9.09375 3.23438 8.96094 3C8.82812 2.76562 8.75781 2.51562 8.75 2.25C8.75 2.03906 8.78906 1.84375 8.86719 1.66406C8.94531 1.48438 9.05078 1.32812 9.18359 1.19531C9.31641 1.0625 9.47656 0.953125 9.66406 0.867188C9.85156 0.78125 10.0469 0.742188 10.25 0.75C10.4609 0.75 10.6562 0.789062 10.8359 0.867188C11.0156 0.945312 11.1719 1.05078 11.3047 1.18359C11.4375 1.31641 11.5469 1.47656 11.6328 1.66406C11.7188 1.85156 11.7578 2.04688 11.75 2.25C11.75 2.51562 11.6836 2.76562 11.5508 3C11.418 3.23438 11.2344 3.41797 11 3.55078V6H16.25C16.5625 6 16.8555 6.05859 17.1289 6.17578C17.4023 6.29297 17.6406 6.45312 17.8438 6.65625C18.0469 6.85938 18.207 7.09766 18.3242 7.37109C18.4414 7.64453 18.5 7.9375 18.5 8.25V10.5H20ZM17 8.25C17 8.04688 16.9258 7.87109 16.7773 7.72266C16.6289 7.57422 16.4531 7.5 16.25 7.5H4.25C4.04688 7.5 3.87109 7.57422 3.72266 7.72266C3.57422 7.87109 3.5 8.04688 3.5 8.25V17.25C3.5 17.4531 3.57422 17.6289 3.72266 17.7773C3.87109 17.9258 4.04688 18 4.25 18H9.5V20.6484L12.5938 18H16.25C16.4531 18 16.6289 17.9258 16.7773 17.7773C16.9258 17.6289 17 17.4531 17 17.25V8.25ZM7.02734 13.6641C7.45703 14.0938 7.94922 14.4219 8.50391 14.6484C9.05859 14.875 9.64062 14.9922 10.25 15C10.8594 15 11.4414 14.8867 11.9961 14.6602C12.5508 14.4336 13.043 14.1016 13.4727 13.6641L14.5273 14.7305C13.957 15.3008 13.3047 15.7383 12.5703 16.043C11.8359 16.3477 11.0625 16.5 10.25 16.5C9.44531 16.5 8.67578 16.3477 7.94141 16.043C7.20703 15.7383 6.55078 15.3008 5.97266 14.7305L7.02734 13.6641Z" fill="#1C1B1F"/>
<path d="M20 10.5H36V-5.5H20V10.5ZM20 13.5V29.5H36V13.5H20ZM18.5 13.5V-2.5H2.5V13.5H18.5ZM13.1562 19.5V3.5H7.2511L2.76181 7.3363L13.1562 19.5ZM8 23.9062H-8V58.6252L18.3944 36.07L8 23.9062ZM8 19.5H24V3.5H8V19.5ZM2 13.5H18V-2.5H2V13.5ZM0.5 13.5H-15.5V29.5H0.5V13.5ZM0.5 10.5V-5.5H-15.5V10.5H0.5ZM2 10.5V26.5H18V10.5H2ZM9.5 6V22H25.5V6H9.5ZM9.5 3.55078H25.5V-5.61638L17.5915 -10.2524L9.5 3.55078ZM8.75 2.25H-7.25V2.48524L-7.24308 2.72038L8.75 2.25ZM10.25 0.75L9.63507 16.7382L9.94242 16.75H10.25V0.75ZM11.75 2.25L-4.23818 1.63507L-4.25 1.94242V2.25H11.75ZM11 3.55078L3.1118 -10.3696L-5 -5.77289V3.55078H11ZM11 6H-5V22H11V6ZM18.5 10.5H2.5V26.5H18.5V10.5ZM9.5 18H25.5V2H9.5V18ZM9.5 20.6484H-6.5V55.4074L19.9051 32.803L9.5 20.6484ZM12.5938 18V2H6.68064L2.18867 5.8454L12.5938 18ZM7.02734 13.6641L18.3411 2.35035L6.96466 -9.02603L-4.3487 2.41303L7.02734 13.6641ZM10.25 15L10.0449 30.9987L10.1474 31H10.25V15ZM13.4727 13.6641L24.8487 2.41303L13.433 -9.12956L2.05749 2.45274L13.4727 13.6641ZM14.5273 14.7305L25.8411 26.0442L37.0924 14.7928L25.9034 3.47944L14.5273 14.7305ZM5.97266 14.7305L-5.40339 3.47944L-16.6688 14.87L-5.26383 26.1209L5.97266 14.7305ZM20 10.5H4V13.5H20H36V10.5H20ZM20 13.5V-2.5H18.5V13.5V29.5H20V13.5ZM18.5 13.5H2.5V17.25H18.5H34.5V13.5H18.5ZM18.5 17.25H2.5C2.5 15.507 2.83874 13.6442 3.6179 11.8262L18.3242 18.1289L33.0305 24.4316C34.0441 22.0667 34.5 19.618 34.5 17.25H18.5ZM18.3242 18.1289L3.6179 11.8262C4.27346 10.2966 5.24254 8.81754 6.53004 7.53004L17.8438 18.8438L29.1575 30.1575C30.8512 28.4637 32.1406 26.5081 33.0305 24.4316L18.3242 18.1289ZM17.8438 18.8438L6.53004 7.53004C7.81754 6.24254 9.29656 5.27346 10.8262 4.6179L17.1289 19.3242L23.4316 34.0305C25.5081 33.1406 27.4637 31.8512 29.1575 30.1575L17.8438 18.8438ZM17.1289 19.3242L10.8262 4.6179C12.6442 3.83874 14.507 3.5 16.25 3.5V19.5V35.5C18.618 35.5 21.0667 35.0441 23.4316 34.0305L17.1289 19.3242ZM16.25 19.5V3.5H13.1562V19.5V35.5H16.25V19.5ZM13.1562 19.5L2.76181 7.3363L-2.39444 11.7425L8 23.9062L18.3944 36.07L23.5507 31.6637L13.1562 19.5ZM8 23.9062H24V19.5H8H-8V23.9062H8ZM8 19.5V3.5H4.25V19.5V35.5H8V19.5ZM4.25 19.5V3.5C5.99299 3.5 7.85576 3.83874 9.6738 4.6179L3.37109 19.3242L-2.93162 34.0305C-0.566698 35.0441 1.88201 35.5 4.25 35.5V19.5ZM3.37109 19.3242L9.6738 4.6179C11.2034 5.27346 12.6825 6.24254 13.97 7.53004L2.65625 18.8438L-8.65746 30.1575C-6.96371 31.8512 -5.00812 33.1406 -2.93162 34.0305L3.37109 19.3242ZM2.65625 18.8438L13.97 7.53004C15.2575 8.81754 16.2265 10.2966 16.8821 11.8262L2.17578 18.1289L-12.5305 24.4316C-11.6406 26.5081 -10.3512 28.4637 -8.65746 30.1575L2.65625 18.8438ZM2.17578 18.1289L16.8821 11.8262C17.6613 13.6442 18 15.507 18 17.25H2H-14C-14 19.618 -13.5441 22.0667 -12.5305 24.4316L2.17578 18.1289ZM2 17.25H18V13.5H2H-14V17.25H2ZM2 13.5V-2.5H0.5V13.5V29.5H2V13.5ZM0.5 13.5H16.5V10.5H0.5H-15.5V13.5H0.5ZM0.5 10.5V26.5H2V10.5V-5.5H0.5V10.5ZM2 10.5H18V8.25H2H-14V10.5H2ZM2 8.25H18C18 9.99299 17.6613 11.8558 16.8821 13.6738L2.17578 7.37109L-12.5305 1.06838C-13.5441 3.4333 -14 5.88201 -14 8.25H2ZM2.17578 7.37109L16.8821 13.6738C16.2265 15.2034 15.2575 16.6825 13.97 17.97L2.65625 6.65625L-8.65746 -4.65746C-10.3512 -2.96371 -11.6406 -1.00812 -12.5305 1.06838L2.17578 7.37109ZM2.65625 6.65625L13.97 17.97C12.6825 19.2575 11.2034 20.2265 9.6738 20.8821L3.37109 6.17578L-2.93162 -8.53054C-5.00812 -7.64061 -6.96371 -6.35121 -8.65746 -4.65746L2.65625 6.65625ZM3.37109 6.17578L9.6738 20.8821C7.85576 21.6613 5.99299 22 4.25 22V6V-10C1.88201 -10 -0.566698 -9.54408 -2.93162 -8.53054L3.37109 6.17578ZM4.25 6V22H9.5V6V-10H4.25V6ZM9.5 6H25.5V3.55078H9.5H-6.5V6H9.5ZM9.5 3.55078L17.5915 -10.2524C19.8594 -8.92296 21.6631 -7.038 22.8813 -4.8882L8.96094 3L-4.95942 10.8882C-3.47557 13.5067 -1.31248 15.7589 1.40849 17.3539L9.5 3.55078ZM8.96094 3L22.8813 -4.8882C24.0147 -2.88808 24.6732 -0.596284 24.7431 1.77962L8.75 2.25L-7.24308 2.72038C-7.15758 5.62753 -6.35844 8.41933 -4.95942 10.8882L8.96094 3ZM8.75 2.25H24.75C24.75 4.06394 24.4028 6.05996 23.5403 8.04368L8.86719 1.66406L-5.80593 -4.71556C-6.82467 -2.37246 -7.25 0.0141842 -7.25 2.25H8.75ZM8.86719 1.66406L23.5403 8.04368C22.8532 9.6241 21.8449 11.1615 20.4973 12.509L9.18359 1.19531L-2.13011 -10.1184C-3.7433 -8.50521 -4.96254 -6.65535 -5.80593 -4.71556L8.86719 1.66406ZM9.18359 1.19531L20.4973 12.509C19.1596 13.8467 17.7024 14.7835 16.3305 15.4122L9.66406 0.867188L2.99759 -13.6778C1.25077 -12.8772 -0.526765 -11.7217 -2.13011 -10.1184L9.18359 1.19531ZM9.66406 0.867188L16.3305 15.4122C14.2723 16.3556 11.9766 16.8282 9.63507 16.7382L10.25 0.75L10.8649 -15.2382C8.1172 -15.3439 5.4308 -14.7931 2.99759 -13.6778L9.66406 0.867188ZM10.25 0.75V16.75C8.43606 16.75 6.44004 16.4028 4.45632 15.5403L10.8359 0.867188L17.2156 -13.8059C14.8725 -14.8247 12.4858 -15.25 10.25 -15.25V0.75ZM10.8359 0.867188L4.45632 15.5403C2.8759 14.8532 1.33854 13.8449 -0.00902098 12.4973L11.3047 1.18359L22.6184 -10.1301C21.0052 -11.7433 19.1554 -12.9625 17.2156 -13.8059L10.8359 0.867188ZM11.3047 1.18359L-0.00902098 12.4973C-1.34675 11.1596 -2.28347 9.70236 -2.91222 8.33054L11.6328 1.66406L26.1778 -5.00241C25.3772 -6.74923 24.2217 -8.52676 22.6184 -10.1301L11.3047 1.18359ZM11.6328 1.66406L-2.91222 8.33054C-3.85557 6.27233 -4.32824 3.97655 -4.23818 1.63507L11.75 2.25L27.7382 2.86493C27.8439 0.117198 27.2931 -2.5692 26.1778 -5.00241L11.6328 1.66406ZM11.75 2.25H-4.25C-4.25 -0.290081 -3.57965 -2.75277 -2.36957 -4.8882L11.5508 3L25.4711 10.8882C26.9468 8.28402 27.75 5.32133 27.75 2.25H11.75ZM11.5508 3L-2.36957 -4.8882C-1.07463 -7.1734 0.826602 -9.07463 3.1118 -10.3696L11 3.55078L18.8882 17.4711C21.6421 15.9106 23.9106 13.6421 25.4711 10.8882L11.5508 3ZM11 3.55078H-5V6H11H27V3.55078H11ZM11 6V22H16.25V6V-10H11V6ZM16.25 6V22C14.507 22 12.6442 21.6613 10.8262 20.8821L17.1289 6.17578L23.4316 -8.53054C21.0667 -9.54408 18.618 -10 16.25 -10V6ZM17.1289 6.17578L10.8262 20.8821C9.29656 20.2265 7.81754 19.2575 6.53004 17.97L17.8438 6.65625L29.1575 -4.65746C27.4637 -6.35121 25.5081 -7.64061 23.4316 -8.53054L17.1289 6.17578ZM17.8438 6.65625L6.53004 17.97C5.24254 16.6825 4.27346 15.2034 3.6179 13.6738L18.3242 7.37109L33.0305 1.06838C32.1406 -1.00812 30.8512 -2.96371 29.1575 -4.65746L17.8438 6.65625ZM18.3242 7.37109L3.6179 13.6738C2.83874 11.8558 2.5 9.99299 2.5 8.25H18.5H34.5C34.5 5.88201 34.0441 3.4333 33.0305 1.06838L18.3242 7.37109ZM18.5 8.25H2.5V10.5H18.5H34.5V8.25H18.5ZM18.5 10.5V26.5H20V10.5V-5.5H18.5V10.5ZM17 8.25H33C33 3.64731 31.1279 -0.554245 28.0911 -3.59105L16.7773 7.72266L5.46364 19.0364C4.22472 17.7974 3.04716 16.1855 2.20434 14.1894C1.35713 12.1828 1 10.1464 1 8.25H17ZM16.7773 7.72266L28.0911 -3.59105C25.0542 -6.62786 20.8527 -8.5 16.25 -8.5V7.5V23.5C14.3536 23.5 12.3172 23.1429 10.3106 22.2957C8.31449 21.4528 6.70255 20.2753 5.46364 19.0364L16.7773 7.72266ZM16.25 7.5V-8.5H4.25V7.5V23.5H16.25V7.5ZM4.25 7.5V-8.5C-0.352691 -8.5 -4.55424 -6.62786 -7.59105 -3.59105L3.72266 7.72266L15.0364 19.0364C13.7974 20.2753 12.1855 21.4528 10.1894 22.2957C8.18281 23.1429 6.14636 23.5 4.25 23.5V7.5ZM3.72266 7.72266L-7.59105 -3.59105C-10.6279 -0.554245 -12.5 3.64731 -12.5 8.25H3.5H19.5C19.5 10.1464 19.1429 12.1828 18.2957 14.1894C17.4528 16.1855 16.2753 17.7974 15.0364 19.0364L3.72266 7.72266ZM3.5 8.25H-12.5V17.25H3.5H19.5V8.25H3.5ZM3.5 17.25H-12.5C-12.5 21.8527 -10.6279 26.0542 -7.59105 29.0911L3.72266 17.7773L15.0364 6.46364C16.2753 7.70255 17.4528 9.31449 18.2957 11.3106C19.1429 13.3172 19.5 15.3536 19.5 17.25H3.5ZM3.72266 17.7773L-7.59105 29.0911C-4.55424 32.1279 -0.352691 34 4.25 34V18V2C6.14636 2 8.18281 2.35713 10.1894 3.20434C12.1855 4.04716 13.7974 5.22472 15.0364 6.46364L3.72266 17.7773ZM4.25 18V34H9.5V18V2H4.25V18ZM9.5 18H-6.5V20.6484H9.5H25.5V18H9.5ZM9.5 20.6484L19.9051 32.803L22.9988 30.1546L12.5938 18L2.18867 5.8454L-0.905077 8.49383L9.5 20.6484ZM12.5938 18V34H16.25V18V2H12.5938V18ZM16.25 18V34C20.8527 34 25.0542 32.1279 28.0911 29.0911L16.7773 17.7773L5.46364 6.46364C6.70255 5.22472 8.31449 4.04716 10.3106 3.20434C12.3172 2.35713 14.3536 2 16.25 2V18ZM16.7773 17.7773L28.0911 29.0911C31.1279 26.0542 33 21.8527 33 17.25H17H1C1 15.3536 1.35713 13.3172 2.20434 11.3106C3.04716 9.31449 4.22472 7.70255 5.46364 6.46364L16.7773 17.7773ZM17 17.25H33V8.25H17H1V17.25H17ZM7.02734 13.6641L-4.28636 24.9778C-2.37407 26.8901 -0.0989821 28.4178 2.4539 29.4605L8.50391 14.6484L14.5539 -0.163634C15.9974 0.42597 17.2881 1.29744 18.3411 2.35035L7.02734 13.6641ZM8.50391 14.6484L2.4539 29.4605C4.89751 30.4586 7.46515 30.9656 10.0449 30.9987L10.25 15L10.4551 -0.998684C11.8161 -0.981236 13.2197 -0.708599 14.5539 -0.163634L8.50391 14.6484ZM10.25 15V31C12.8978 31 15.5376 30.4968 18.0461 29.4722L11.9961 14.6602L5.94609 -0.151915C7.3452 -0.723383 8.82095 -0.999999 10.25 -0.999999V15ZM11.9961 14.6602L18.0461 29.4722C20.6633 28.4032 22.9699 26.8282 24.8878 24.8754L13.4727 13.6641L2.05749 2.45274C3.11604 1.37494 4.43824 0.463968 5.94609 -0.151915L11.9961 14.6602ZM13.4727 13.6641L2.09661 24.9151L3.1513 25.9815L14.5273 14.7305L25.9034 3.47944L24.8487 2.41303L13.4727 13.6641ZM14.5273 14.7305L3.21364 3.41676C4.1049 2.5255 5.20685 1.77558 6.4388 1.26445L12.5703 16.043L18.7018 30.8215C21.4025 29.701 23.8092 28.0761 25.8411 26.0442L14.5273 14.7305ZM12.5703 16.043L6.4388 1.26445C7.69121 0.744836 9.00546 0.500001 10.25 0.500001V16.5V32.5C13.1195 32.5 15.9807 31.9505 18.7018 30.8215L12.5703 16.043ZM10.25 16.5V0.500001C11.5235 0.500001 12.8397 0.752791 14.0729 1.26445L7.94141 16.043L1.80989 30.8215C4.51188 31.9425 7.36716 32.5 10.25 32.5V16.5ZM7.94141 16.043L14.0729 1.26445C15.2838 1.76684 16.3519 2.49438 17.2091 3.34006L5.97266 14.7305L-5.26383 26.1209C-3.25032 28.1072 -0.869748 29.7097 1.80989 30.8215L7.94141 16.043ZM5.97266 14.7305L17.3487 25.9815L18.4034 24.9151L7.02734 13.6641L-4.3487 2.41303L-5.40339 3.47944L5.97266 14.7305Z" fill="black" mask="url(#path-1-inside-1_53223_494)"/>
</svg>
