<svg width="20" height="20" viewBox="0 0 20 20" fill="none" xmlns="http://www.w3.org/2000/svg">
<path d="M4.75 0.5C7.09721 0.5 9 2.40279 9 4.75V9H4.75C2.40279 9 0.5 7.09721 0.5 4.75C0.5 2.40279 2.40279 0.5 4.75 0.5ZM4.75 11H9V15.25C9 17.5972 7.09721 19.5 4.75 19.5C2.40279 19.5 0.5 17.5972 0.5 15.25C0.5 12.9028 2.40279 11 4.75 11ZM15.25 0.5C17.5972 0.5 19.5 2.40279 19.5 4.75C19.5 7.09721 17.5972 9 15.25 9H11V4.75C11 2.40279 12.9028 0.5 15.25 0.5ZM11 11H15.25C17.5972 11 19.5 12.9028 19.5 15.25C19.5 17.5972 17.5972 19.5 15.25 19.5C12.9028 19.5 11 17.5972 11 15.25V11Z" fill="white"/>
</svg>
