<svg width="20" height="20" viewBox="0 0 20 20" fill="none" xmlns="http://www.w3.org/2000/svg">
<path d="M14.168 5.00032H18.3346V6.66699H16.668V17.5003C16.668 17.9606 16.2949 18.3337 15.8346 18.3337H4.16797C3.70774 18.3337 3.33464 17.9606 3.33464 17.5003V6.66699H1.66797V5.00032H5.83463V2.50033C5.83463 2.04009 6.20773 1.66699 6.66797 1.66699H13.3346C13.7949 1.66699 14.168 2.04009 14.168 2.50033V5.00032ZM15.0013 6.66699H5.0013V16.667H15.0013V6.66699ZM7.5013 9.16699H9.16797V14.167H7.5013V9.16699ZM10.8346 9.16699H12.5013V14.167H10.8346V9.16699ZM7.5013 3.33366V5.00032H12.5013V3.33366H7.5013Z" fill="#1093FF"/>
</svg>
