<svg width="17" height="17" viewBox="0 0 17 17" fill="none" xmlns="http://www.w3.org/2000/svg">
<path d="M14.845 1.12974H1.73827C1.65375 1.13392 1.57223 1.16254 1.50362 1.21218C1.43502 1.26183 1.38228 1.33035 1.35176 1.40942C1.32124 1.48849 1.31419 1.57477 1.33161 1.65773C1.34903 1.74069 1.39012 1.81679 1.44985 1.87685L6.1635 7.00703C6.27396 7.13389 6.33416 7.2969 6.3326 7.46522V14.4384C6.32061 14.5591 6.34378 14.6806 6.39936 14.7883C6.45495 14.8961 6.54057 14.9856 6.64579 15.0456C6.75101 15.1057 6.87133 15.1339 6.99224 15.1269C7.11315 15.1199 7.22945 15.0779 7.32704 15.006L9.4849 13.7409C9.87274 13.4819 10.3402 13.3226 10.3402 12.8145V7.41549C10.339 7.33263 10.3542 7.25032 10.3849 7.17338C10.4156 7.09645 10.4613 7.02633 10.5192 6.96715L15.1832 1.88682C15.2499 1.8245 15.2954 1.7428 15.3135 1.65323C15.3317 1.56365 15.3214 1.47071 15.2842 1.38729C15.2469 1.30386 15.1845 1.23416 15.1057 1.18799C15.027 1.14181 14.9358 1.12144 14.845 1.12974Z" stroke="#373738" stroke-width="2" stroke-miterlimit="10" stroke-linecap="round"/>
</svg>
