<svg width="24" height="24" viewBox="0 0 24 24" fill="none" xmlns="http://www.w3.org/2000/svg">
<path d="M20.4146 7.95696L20.1456 8.58842C19.9488 9.0507 19.3239 9.0507 19.127 8.58842L18.8581 7.95696C18.3787 6.83104 17.5151 5.9346 16.4375 5.44418L15.6087 5.06704C15.1607 4.8631 15.1607 4.19588 15.6087 3.99195L16.3911 3.63588C17.4964 3.13285 18.3755 2.20323 18.8467 1.03907L19.1229 0.356685C19.3154 -0.118895 19.9573 -0.118895 20.1497 0.356685L20.426 1.03907C20.8972 2.20323 21.7763 3.13285 22.8816 3.63588L23.6639 3.99195C24.112 4.19588 24.112 4.8631 23.6639 5.06704L22.8352 5.44418C21.7576 5.9346 20.8941 6.83104 20.4146 7.95696ZM19.6364 11.1628C20.3985 11.1628 21.1303 11.0295 21.8104 10.7845C21.8156 10.91 21.8182 11.0361 21.8182 11.1628C21.8182 16.0948 17.9109 20.093 13.0909 20.093V24C7.63636 21.7674 0 18.4186 0 11.1628C0 6.23076 3.90733 2.23256 8.72727 2.23256H13.0909C13.2147 2.23256 13.338 2.2352 13.4606 2.24043C13.2212 2.9365 13.0909 3.68524 13.0909 4.46512C13.0909 8.16414 16.0214 11.1628 19.6364 11.1628Z" fill="white"/>
</svg>
