<svg width="19" height="19" viewBox="0 0 19 19" fill="none" xmlns="http://www.w3.org/2000/svg">
<path d="M17.3764 9.67444C17.3764 9.02695 17.3228 8.55445 17.2067 8.06445H9.66211V10.9869H14.0906C14.0014 11.7132 13.5192 12.8069 12.4478 13.5419L12.4328 13.6397L14.8183 15.4508L14.9835 15.467C16.5014 14.0932 17.3764 12.0719 17.3764 9.67444Z" fill="#00AA11"/>
<path d="M9.66098 17.3752C11.8306 17.3752 13.652 16.6751 14.9824 15.4677L12.4467 13.5426C11.7681 14.0064 10.8574 14.3301 9.66098 14.3301C7.53601 14.3301 5.73246 12.9564 5.08954 11.0576L4.9953 11.0655L2.51486 12.9467L2.48242 13.0351C3.80383 15.6076 6.51811 17.3752 9.66098 17.3752Z" fill="#34A853"/>
<path d="M5.08925 11.0576C4.91961 10.5676 4.82143 10.0426 4.82143 9.5001C4.82143 8.95756 4.91961 8.43258 5.08032 7.94259L5.07583 7.83823L2.56429 5.92676L2.48212 5.96506C1.9375 7.03258 1.625 8.23135 1.625 9.5001C1.625 10.7688 1.9375 11.9676 2.48212 13.0351L5.08925 11.0576Z" fill="#FBBC05"/>
<path d="M9.66103 4.66998C11.1699 4.66998 12.1878 5.30873 12.7682 5.84251L15.036 3.6725C13.6432 2.40375 11.8306 1.625 9.66103 1.625C6.51814 1.625 3.80384 3.39249 2.48242 5.96497L5.08063 7.94249C5.73248 6.04375 7.53604 4.66998 9.66103 4.66998Z" fill="#EB4335"/>
</svg>
