<svg width="55" height="37" viewBox="0 0 55 37" fill="none" xmlns="http://www.w3.org/2000/svg">
<path d="M19.9841 6.83333V24.3333M19.9841 6.83333H28.9603C30.5474 6.83333 32.0695 7.44791 33.1917 8.54188C34.314 9.63584 34.9444 11.1196 34.9444 12.6667C34.9444 14.2138 34.314 15.6975 33.1917 16.7915C32.0695 17.8854 30.5474 18.5 28.9603 18.5H19.9841V6.83333ZM19.9841 24.3333C18.397 24.3333 16.875 24.9479 15.7527 26.0419C14.6305 27.1358 14 28.6196 14 30.1667M19.9841 24.3333H31.9524C34.333 24.3333 36.6161 23.1042 38.2995 20.9162C39.9829 18.7283 40.9286 15.7609 40.9286 12.6667C40.9286 9.57248 39.9829 6.60501 38.2995 4.41709C36.6161 2.22916 34.333 1 31.9524 1H14V30.1667M14 30.1667C14 31.7138 14.6305 33.1975 15.7527 34.2915C16.875 35.3854 18.397 36 19.9841 36V27.25" stroke="white" stroke-width="2" stroke-linecap="square" stroke-linejoin="round"/>
</svg>
