<svg width="26" height="26" viewBox="0 0 26 26" fill="none" xmlns="http://www.w3.org/2000/svg">
<path d="M13.0301 16.9299C13.969 16.9299 14.7301 17.691 14.7301 18.6299C14.7301 19.5688 13.969 20.3299 13.0301 20.3299C12.0912 20.3299 11.3301 19.5688 11.3301 18.6299C11.3301 17.691 12.0912 16.9299 13.0301 16.9299ZM13.0301 10.5299C13.969 10.5299 14.7301 11.291 14.7301 12.2299C14.7301 13.1688 13.969 13.9299 13.0301 13.9299C12.0912 13.9299 11.3301 13.1688 11.3301 12.2299C11.3301 11.291 12.0912 10.5299 13.0301 10.5299ZM13.0301 4.12988C13.969 4.12988 14.7301 4.891 14.7301 5.82988C14.7301 6.76877 13.969 7.52988 13.0301 7.52988C12.0912 7.52988 11.3301 6.76877 11.3301 5.82988C11.3301 4.891 12.0912 4.12988 13.0301 4.12988Z" fill="#5F5F5F"/>
</svg>
