<svg width="24" height="25" viewBox="0 0 24 25" fill="none" xmlns="http://www.w3.org/2000/svg">
<path d="M15.6449 18.8971C16.0737 20.4975 15.124 22.1425 13.5236 22.5713C11.9232 23.0001 10.2782 22.0504 9.84938 20.45M2.05585 12.4956C1.66636 11.0974 2.0714 9.58582 3.1078 8.56971M12.1453 6.62318C12.4495 6.07588 12.5497 5.41438 12.3749 4.76178C12.0175 3.42812 10.6467 2.63666 9.31302 2.99401C7.97936 3.35137 7.1879 4.72221 7.54526 6.05588C7.72012 6.70847 8.13765 7.23124 8.67475 7.55312M20.318 7.60233C19.9562 6.19672 18.8496 5.09012 17.444 4.72835M17.4896 10.3276C17.1327 8.99548 16.1798 7.88152 14.8405 7.23078C13.5012 6.58005 11.8853 6.44585 10.3482 6.85771C8.81116 7.26957 7.47883 8.19375 6.64435 9.42694C5.80987 10.6601 5.5416 12.1013 5.89854 13.4334C6.48912 15.6375 6.37444 17.3958 6.00149 18.732C5.57642 20.2548 5.36389 21.0163 5.4213 21.1692C5.487 21.3441 5.53452 21.3921 5.70876 21.4596C5.86105 21.5186 6.50082 21.3472 7.78035 21.0043L19.6454 17.8251C20.9249 17.4822 21.5647 17.3108 21.6671 17.1836C21.7842 17.038 21.8014 16.9727 21.7708 16.7883C21.7441 16.6272 21.1793 16.0741 20.0498 14.9678C19.0587 13.9971 18.0802 12.5316 17.4896 10.3276Z" stroke="black" stroke-width="2" stroke-linecap="round" stroke-linejoin="round"/>
</svg>
