<svg width="20" height="18" viewBox="0 0 20 18" fill="none" xmlns="http://www.w3.org/2000/svg">
<path d="M1.086 6H18.9124C19.4647 6 19.9124 6.44772 19.9124 7C19.9124 7.0277 19.9112 7.0554 19.9089 7.083L19.0756 17.083C19.0324 17.6013 18.5991 18 18.079 18H1.91933C1.39924 18 0.965977 17.6013 0.922787 17.083L0.0894466 7.083C0.0435866 6.53267 0.452577 6.04932 1.00295 6.00345C1.03058 6.00115 1.05828 6 1.086 6ZM2.83947 16H17.1589L17.8256 8H2.1728L2.83947 16ZM11.4134 2H17.9992C18.5515 2 18.9992 2.44772 18.9992 3V4H0.999197V1C0.999197 0.44772 1.44692 0 1.9992 0H9.41343L11.4134 2Z" fill="white"/>
</svg>
