<svg width="18" height="18" viewBox="0 0 18 18" fill="none" xmlns="http://www.w3.org/2000/svg">
<path d="M0 1.99509C0 0.89323 0.89262 0 1.99509 0H16.0049C17.1068 0 18 0.89262 18 1.99509V16.0049C18 17.1068 17.1074 18 16.0049 18H1.99509C0.89323 18 0 17.1074 0 16.0049V1.99509ZM2 2V16H16V2H2ZM4.97216 15.1808C4.35347 14.9129 3.76719 14.5843 3.22083 14.2024C4.46773 12.2753 6.63602 11 9.1022 11C11.5015 11 13.6189 12.2071 14.8801 14.0472C14.3438 14.4436 13.7664 14.7877 13.1555 15.0718C12.2472 13.8166 10.77 13 9.1022 13C7.3865 13 5.87271 13.8641 4.97216 15.1808ZM9 10C7.067 10 5.5 8.433 5.5 6.5C5.5 4.567 7.067 3 9 3C10.933 3 12.5 4.567 12.5 6.5C12.5 8.433 10.933 10 9 10ZM9 8C9.8284 8 10.5 7.3284 10.5 6.5C10.5 5.67157 9.8284 5 9 5C8.1716 5 7.5 5.67157 7.5 6.5C7.5 7.3284 8.1716 8 9 8Z" fill="white"/>
</svg>
