<svg width="14" height="17" viewBox="0 0 14 17" fill="none" xmlns="http://www.w3.org/2000/svg">
<path d="M7 16.5C6.0625 16.5 5.18438 16.3219 4.36563 15.9656C3.54688 15.6094 2.83438 15.1281 2.22813 14.5219C1.62188 13.9156 1.14062 13.2031 0.784375 12.3844C0.428125 11.5656 0.25 10.6875 0.25 9.75H1.75C1.75 11.2125 2.25937 12.4531 3.27812 13.4719C4.29688 14.4906 5.5375 15 7 15C8.4625 15 9.70312 14.4906 10.7219 13.4719C11.7406 12.4531 12.25 11.2125 12.25 9.75C12.25 8.2875 11.7406 7.04688 10.7219 6.02812C9.70312 5.00938 8.4625 4.5 7 4.5H6.8875L8.05 5.6625L7 6.75L4 3.75L7 0.75L8.05 1.8375L6.8875 3H7C7.9375 3 8.81563 3.17813 9.63437 3.53438C10.4531 3.89062 11.1656 4.37188 11.7719 4.97813C12.3781 5.58438 12.8594 6.29688 13.2156 7.11563C13.5719 7.93438 13.75 8.8125 13.75 9.75C13.75 10.6875 13.5719 11.5656 13.2156 12.3844C12.8594 13.2031 12.3781 13.9156 11.7719 14.5219C11.1656 15.1281 10.4531 15.6094 9.63437 15.9656C8.81563 16.3219 7.9375 16.5 7 16.5Z" fill="#1093FF"/>
</svg>
