<svg width="24" height="25" viewBox="0 0 24 25" fill="none" xmlns="http://www.w3.org/2000/svg">
<path d="M12 15.8823C13.6568 15.8823 15 14.5392 15 12.8823C15 11.2254 13.6568 9.88232 12 9.88232C10.3431 9.88232 9 11.2254 9 12.8823C9 14.5392 10.3431 15.8823 12 15.8823Z" stroke="black" stroke-width="2" stroke-linecap="round" stroke-linejoin="round"/>
<path d="M9.28957 20.2534L9.87402 21.5679C10.0478 21.9591 10.3313 22.2916 10.6902 22.5249C11.0492 22.7582 11.4681 22.8824 11.8962 22.8823C12.3244 22.8824 12.7433 22.7582 13.1022 22.5249C13.4612 22.2916 13.7447 21.9591 13.9185 21.5679L14.5029 20.2534C14.711 19.787 15.0609 19.3982 15.5029 19.1423C15.9477 18.8857 16.4622 18.7764 16.9729 18.8301L18.4029 18.9823C18.8286 19.0273 19.2582 18.9479 19.6396 18.7536C20.021 18.5594 20.3379 18.2586 20.5518 17.8879C20.766 17.5173 20.868 17.0926 20.8455 16.6652C20.823 16.2378 20.677 15.8261 20.4251 15.4801L19.5785 14.3167C19.277 13.8994 19.1159 13.3971 19.1185 12.8823C19.1184 12.3689 19.281 11.8687 19.5829 11.4534L20.4296 10.2901C20.6814 9.94407 20.8275 9.53239 20.85 9.10499C20.8725 8.6776 20.7704 8.25286 20.5562 7.88232C20.3423 7.51155 20.0255 7.21081 19.644 7.01655C19.2626 6.82229 18.833 6.74285 18.4074 6.78788L16.9774 6.9401C16.4667 6.99373 15.9521 6.88444 15.5074 6.62788C15.0645 6.37057 14.7144 5.97968 14.5074 5.51121L13.9185 4.19676C13.7447 3.80549 13.4612 3.47304 13.1022 3.23972C12.7433 3.0064 12.3244 2.88225 11.8962 2.88232C11.4681 2.88225 11.0492 3.0064 10.6902 3.23972C10.3313 3.47304 10.0478 3.80549 9.87402 4.19676L9.28957 5.51121C9.0825 5.97968 8.73245 6.37057 8.28957 6.62788C7.84479 6.88444 7.33024 6.99373 6.81957 6.9401L5.38513 6.78788C4.95946 6.74285 4.52987 6.82229 4.14844 7.01655C3.76702 7.21081 3.45014 7.51155 3.23624 7.88232C3.02206 8.25286 2.92002 8.6776 2.94251 9.10499C2.96499 9.53239 3.11103 9.94407 3.36291 10.2901L4.20957 11.4534C4.51151 11.8687 4.67411 12.3689 4.67402 12.8823C4.67411 13.3957 4.51151 13.896 4.20957 14.3112L3.36291 15.4745C3.11103 15.8205 2.96499 16.2322 2.94251 16.6596C2.92002 17.087 3.02206 17.5118 3.23624 17.8823C3.45036 18.2529 3.76727 18.5535 4.14864 18.7477C4.53001 18.9419 4.95949 19.0215 5.38513 18.9767L6.81513 18.8245C7.3258 18.7709 7.84034 18.8802 8.28513 19.1367C8.72966 19.3933 9.08134 19.7843 9.28957 20.2534Z" stroke="black" stroke-width="2" stroke-linecap="round" stroke-linejoin="round"/>
</svg>
