<svg width="21" height="22" viewBox="0 0 21 22" fill="none" xmlns="http://www.w3.org/2000/svg">
<path d="M18 6V10H16V7H11V2H2V18H8V20H0.9934C0.44495 20 0 19.556 0 19.0082V0.9918C0 0.45531 0.4487 0 1.00221 0H11.9968L18 6ZM10.7857 13.3269C10.8246 12.5997 11.3858 12.0083 12.11 11.9313L12.9807 11.8389C13.0841 11.8279 13.1815 11.7845 13.2589 11.715L13.9102 11.1299C14.4519 10.6431 15.2669 10.6218 15.8334 11.0795L16.5145 11.6298C16.5954 11.6951 16.6949 11.7333 16.7988 11.7389L17.6731 11.7857C18.4003 11.8246 18.9917 12.3858 19.0687 13.11L19.1611 13.9807C19.1721 14.0841 19.2155 14.1815 19.285 14.2589L19.8701 14.9102C20.3569 15.4519 20.3782 16.2669 19.9205 16.8334L19.3702 17.5145C19.3049 17.5954 19.2667 17.6949 19.2611 17.7988L19.2143 18.6731C19.1754 19.4003 18.6142 19.9917 17.89 20.0687L17.0193 20.1611C16.9159 20.1721 16.8185 20.2155 16.7411 20.285L16.0898 20.8701C15.5481 21.3569 14.7331 21.3782 14.1666 20.9205L13.4855 20.3702C13.4046 20.3049 13.3051 20.2667 13.2012 20.2611L12.3269 20.2143C11.5997 20.1754 11.0083 19.6142 10.9313 18.89L10.8389 18.0193C10.8279 17.9159 10.7845 17.8185 10.715 17.7411L10.1299 17.0898C9.6431 16.5481 9.6218 15.733 10.0795 15.1666L10.6298 14.4855C10.6951 14.4046 10.7333 14.3051 10.7389 14.2012L10.7857 13.3269ZM18.0303 15.0303L16.9697 13.9697L14.5 16.4393L13.0303 14.9697L11.9697 16.0303L14.5 18.5607L18.0303 15.0303Z" fill="#2B80EC"/>
</svg>
